<svg xmlns="http://www.w3.org/2000/svg" viewBox="0 0 800 1000" role="img" aria-label="Placeholder for the painting Family">
  <rect width="800" height="1000" fill="#1f2a4d"/>
  <g fill="none" stroke="#4a5f9e" stroke-width="14" opacity="0.8">
    <path d="M60 220 Q200 120 340 220 T620 200"/>
    <path d="M120 380 Q280 280 420 380 T740 360"/>
    <path d="M20 560 Q180 460 340 550 T660 540"/>
  </g>
  <g fill="none" stroke="#7c92cf" stroke-width="8" opacity="0.7">
    <path d="M80 250 Q220 160 360 250 T640 230"/>
    <path d="M140 410 Q300 320 440 410 T760 390"/>
  </g>
  <circle cx="640" cy="150" r="58" fill="#e8b25c"/>
  <circle cx="640" cy="150" r="86" fill="none" stroke="#e8b25c" stroke-width="6" opacity="0.5"/>
  <circle cx="180" cy="130" r="10" fill="#f2d38a"/>
  <circle cx="320" cy="90" r="7" fill="#f2d38a"/>
  <circle cx="470" cy="140" r="9" fill="#f2d38a"/>
  <g fill="#d8d0c3">
    <ellipse cx="300" cy="780" rx="60" ry="130"/>
    <ellipse cx="410" cy="800" rx="52" ry="110"/>
    <ellipse cx="500" cy="820" rx="42" ry="88"/>
    <circle cx="300" cy="620" r="44"/>
    <circle cx="410" cy="660" r="38"/>
    <circle cx="500" cy="705" r="30"/>
  </g>
  <text x="400" y="960" font-family="Georgia, serif" font-size="26" fill="#a8b4d8" text-anchor="middle" opacity="0.8">Placeholder — replace with photo of “Family”</text>
</svg>
