<svg xmlns="http://www.w3.org/2000/svg" viewBox="0 0 800 1000" role="img" aria-label="Placeholder for the painting Palomino">
  <rect width="800" height="1000" fill="#2c4a6e"/>
  <circle cx="180" cy="180" r="90" fill="#e8b25c" opacity="0.9"/>
  <path d="M480 320 Q620 260 680 380 Q700 470 600 500 L560 620 L500 600 L520 500 Q420 480 430 400 Q440 340 480 320 Z" fill="#e8dcc8"/>
  <path d="M660 340 Q720 300 700 250 L670 290 Q650 310 660 340 Z" fill="#d8d0c3"/>
  <ellipse cx="400" cy="760" rx="260" ry="60" fill="#1d3450" opacity="0.8"/>
  <path d="M140 620 Q240 560 330 640 Q300 720 200 700 Q130 680 140 620 Z" fill="#b5502a" opacity="0.85"/>
  <circle cx="230" cy="640" r="26" fill="#e8dcc8" opacity="0.9"/>
  <g fill="#f2d38a" opacity="0.9">
    <circle cx="600" cy="130" r="8"/>
    <circle cx="700" cy="200" r="6"/>
    <circle cx="520" cy="90" r="5"/>
  </g>
  <path d="M80 380 Q160 340 220 400 Q180 460 110 440 Q70 420 80 380 Z" fill="#4a7a9e" opacity="0.7"/>
  <text x="400" y="960" font-family="Georgia, serif" font-size="26" fill="#a8c0d8" text-anchor="middle" opacity="0.8">Placeholder — replace with photo of “Palomino”</text>
</svg>
