<svg xmlns="http://www.w3.org/2000/svg" viewBox="0 0 800 1000" role="img" aria-label="Placeholder for a stone sculpture">
  <defs>
    <linearGradient id="bg3" x1="0" y1="0" x2="0" y2="1">
      <stop offset="0" stop-color="#ece4d7"/>
      <stop offset="1" stop-color="#cfc3af"/>
    </linearGradient>
    <linearGradient id="stone3" x1="0" y1="0" x2="1" y2="1">
      <stop offset="0" stop-color="#d6ccba"/>
      <stop offset="1" stop-color="#978b74"/>
    </linearGradient>
  </defs>
  <rect width="800" height="1000" fill="url(#bg3)"/>
  <ellipse cx="400" cy="855" rx="235" ry="38" fill="#8f8574" opacity="0.3"/>
  <path d="M400 170 Q460 240 440 330 Q520 340 540 440 Q555 540 470 590 Q500 680 430 730 L370 730 Q300 680 330 590 Q245 540 260 440 Q280 340 360 330 Q340 240 400 170 Z" fill="url(#stone3)"/>
  <ellipse cx="400" cy="450" rx="60" ry="80" fill="#f2ece0" opacity="0.35"/>
  <rect x="315" y="815" width="170" height="42" rx="6" fill="#55504a"/>
  <text x="400" y="950" font-family="Georgia, serif" font-size="26" fill="#55504a" text-anchor="middle" opacity="0.7">Placeholder — replace with sculpture photo</text>
</svg>
